<svg width="250" height="160" viewBox="0 0 250 160" fill="none" xmlns="http://www.w3.org/2000/svg">
<g clip-path="url(#clip0_109_84)">
<rect width="11.9048" height="11.9048" stroke="white" stroke-opacity="0.06" stroke-width="0.238095"/>
<rect x="11.9048" width="11.9048" height="11.9048" stroke="white" stroke-opacity="0.06" stroke-width="0.238095"/>
<rect x="23.8095" width="11.9048" height="11.9048" stroke="white" stroke-opacity="0.06" stroke-width="0.238095"/>
<rect x="35.7143" width="11.9048" height="11.9048" stroke="white" stroke-opacity="0.06" stroke-width="0.238095"/>
<rect x="47.619" width="11.9048" height="11.9048" stroke="white" stroke-opacity="0.06" stroke-width="0.238095"/>
<rect x="59.5238" width="11.9048" height="11.9048" stroke="white" stroke-opacity="0.06" stroke-width="0.238095"/>
<rect x="71.4286" width="11.9048" height="11.9048" stroke="white" stroke-opacity="0.06" stroke-width="0.238095"/>
<rect x="83.3333" width="11.9048" height="11.9048" stroke="white" stroke-opacity="0.06" stroke-width="0.238095"/>
<rect x="95.2381" width="11.9048" height="11.9048" stroke="white" stroke-opacity="0.06" stroke-width="0.238095"/>
<rect x="107.143" width="11.9048" height="11.9048" stroke="white" stroke-opacity="0.06" stroke-width="0.238095"/>
<rect x="119.048" width="11.9048" height="11.9048" stroke="white" stroke-opacity="0.06" stroke-width="0.238095"/>
<rect x="130.952" width="11.9048" height="11.9048" stroke="white" stroke-opacity="0.06" stroke-width="0.238095"/>
<rect x="142.857" width="11.9048" height="11.9048" stroke="white" stroke-opacity="0.06" stroke-width="0.238095"/>
<rect x="154.762" width="11.9048" height="11.9048" stroke="white" stroke-opacity="0.06" stroke-width="0.238095"/>
<rect x="166.667" width="11.9048" height="11.9048" stroke="white" stroke-opacity="0.06" stroke-width="0.238095"/>
<rect x="178.571" width="11.9048" height="11.9048" stroke="white" stroke-opacity="0.06" stroke-width="0.238095"/>
<rect x="190.476" width="11.9048" height="11.9048" stroke="white" stroke-opacity="0.06" stroke-width="0.238095"/>
<rect x="202.381" width="11.9048" height="11.9048" stroke="white" stroke-opacity="0.06" stroke-width="0.238095"/>
<rect x="214.286" width="11.9048" height="11.9048" stroke="white" stroke-opacity="0.06" stroke-width="0.238095"/>
<rect x="226.19" width="11.9048" height="11.9048" stroke="white" stroke-opacity="0.06" stroke-width="0.238095"/>
<rect x="238.095" width="11.9048" height="11.9048" stroke="white" stroke-opacity="0.06" stroke-width="0.238095"/>
<rect y="11.9048" width="11.9048" height="11.9048" stroke="white" stroke-opacity="0.06" stroke-width="0.238095"/>
<rect x="11.9048" y="11.9048" width="11.9048" height="11.9048" stroke="white" stroke-opacity="0.06" stroke-width="0.238095"/>
<rect x="23.8095" y="11.9048" width="11.9048" height="11.9048" fill="white" fill-opacity="0.05" stroke="white" stroke-opacity="0.06" stroke-width="0.238095"/>
<rect x="35.7143" y="11.9048" width="11.9048" height="11.9048" stroke="white" stroke-opacity="0.06" stroke-width="0.238095"/>
<rect x="47.619" y="11.9048" width="11.9048" height="11.9048" stroke="white" stroke-opacity="0.06" stroke-width="0.238095"/>
<rect x="59.5238" y="11.9048" width="11.9048" height="11.9048" stroke="white" stroke-opacity="0.06" stroke-width="0.238095"/>
<rect x="71.4286" y="11.9048" width="11.9048" height="11.9048" stroke="white" stroke-opacity="0.06" stroke-width="0.238095"/>
<rect x="83.3333" y="11.9048" width="11.9048" height="11.9048" stroke="white" stroke-opacity="0.06" stroke-width="0.238095"/>
<rect x="95.2381" y="11.9048" width="11.9048" height="11.9048" stroke="white" stroke-opacity="0.06" stroke-width="0.238095"/>
<rect x="107.143" y="11.9048" width="11.9048" height="11.9048" fill="white" fill-opacity="0.05" stroke="white" stroke-opacity="0.06" stroke-width="0.238095"/>
<rect x="119.048" y="11.9048" width="11.9048" height="11.9048" stroke="white" stroke-opacity="0.06" stroke-width="0.238095"/>
<rect x="130.952" y="11.9048" width="11.9048" height="11.9048" stroke="white" stroke-opacity="0.06" stroke-width="0.238095"/>
<rect x="142.857" y="11.9048" width="11.9048" height="11.9048" stroke="white" stroke-opacity="0.06" stroke-width="0.238095"/>
<rect x="154.762" y="11.9048" width="11.9048" height="11.9048" stroke="white" stroke-opacity="0.06" stroke-width="0.238095"/>
<rect x="166.667" y="11.9048" width="11.9048" height="11.9048" stroke="white" stroke-opacity="0.06" stroke-width="0.238095"/>
<rect x="178.571" y="11.9048" width="11.9048" height="11.9048" stroke="white" stroke-opacity="0.06" stroke-width="0.238095"/>
<rect x="190.476" y="11.9048" width="11.9048" height="11.9048" stroke="white" stroke-opacity="0.06" stroke-width="0.238095"/>
<rect x="202.381" y="11.9048" width="11.9048" height="11.9048" stroke="white" stroke-opacity="0.06" stroke-width="0.238095"/>
<rect x="214.286" y="11.9048" width="11.9048" height="11.9048" stroke="white" stroke-opacity="0.06" stroke-width="0.238095"/>
<rect x="226.19" y="11.9048" width="11.9048" height="11.9048" stroke="white" stroke-opacity="0.06" stroke-width="0.238095"/>
<rect x="238.095" y="11.9048" width="11.9048" height="11.9048" stroke="white" stroke-opacity="0.06" stroke-width="0.238095"/>
<rect y="23.8096" width="11.9048" height="11.9048" stroke="white" stroke-opacity="0.06" stroke-width="0.238095"/>
<rect x="11.9048" y="23.8096" width="11.9048" height="11.9048" stroke="white" stroke-opacity="0.06" stroke-width="0.238095"/>
<rect x="23.8095" y="23.8096" width="11.9048" height="11.9048" stroke="white" stroke-opacity="0.06" stroke-width="0.238095"/>
<rect x="35.7143" y="23.8096" width="11.9048" height="11.9048" stroke="white" stroke-opacity="0.06" stroke-width="0.238095"/>
<rect x="47.619" y="23.8096" width="11.9048" height="11.9048" stroke="white" stroke-opacity="0.06" stroke-width="0.238095"/>
<rect x="59.5238" y="23.8096" width="11.9048" height="11.9048" stroke="white" stroke-opacity="0.06" stroke-width="0.238095"/>
<rect x="71.4286" y="23.8096" width="11.9048" height="11.9048" stroke="white" stroke-opacity="0.06" stroke-width="0.238095"/>
<rect x="83.3333" y="23.8096" width="11.9048" height="11.9048" stroke="white" stroke-opacity="0.06" stroke-width="0.238095"/>
<rect x="95.2381" y="23.8096" width="11.9048" height="11.9048" stroke="white" stroke-opacity="0.06" stroke-width="0.238095"/>
<rect x="107.143" y="23.8096" width="11.9048" height="11.9048" stroke="white" stroke-opacity="0.06" stroke-width="0.238095"/>
<rect x="119.048" y="23.8096" width="11.9048" height="11.9048" stroke="white" stroke-opacity="0.06" stroke-width="0.238095"/>
<rect x="130.952" y="23.8096" width="11.9048" height="11.9048" stroke="white" stroke-opacity="0.06" stroke-width="0.238095"/>
<rect x="142.857" y="23.8096" width="11.9048" height="11.9048" stroke="white" stroke-opacity="0.06" stroke-width="0.238095"/>
<rect x="154.762" y="23.8096" width="11.9048" height="11.9048" stroke="white" stroke-opacity="0.06" stroke-width="0.238095"/>
<rect x="166.667" y="23.8096" width="11.9048" height="11.9048" stroke="white" stroke-opacity="0.06" stroke-width="0.238095"/>
<rect x="178.571" y="23.8096" width="11.9048" height="11.9048" stroke="white" stroke-opacity="0.06" stroke-width="0.238095"/>
<rect x="190.476" y="23.8096" width="11.9048" height="11.9048" fill="white" fill-opacity="0.05" stroke="white" stroke-opacity="0.06" stroke-width="0.238095"/>
<rect x="202.381" y="23.8096" width="11.9048" height="11.9048" stroke="white" stroke-opacity="0.06" stroke-width="0.238095"/>
<rect x="214.286" y="23.8096" width="11.9048" height="11.9048" stroke="white" stroke-opacity="0.06" stroke-width="0.238095"/>
<rect x="226.19" y="23.8096" width="11.9048" height="11.9048" stroke="white" stroke-opacity="0.06" stroke-width="0.238095"/>
<rect x="238.095" y="23.8096" width="11.9048" height="11.9048" stroke="white" stroke-opacity="0.06" stroke-width="0.238095"/>
<rect y="35.7142" width="11.9048" height="11.9048" stroke="white" stroke-opacity="0.06" stroke-width="0.238095"/>
<rect x="11.9048" y="35.7142" width="11.9048" height="11.9048" stroke="white" stroke-opacity="0.06" stroke-width="0.238095"/>
<rect x="23.8095" y="35.7142" width="11.9048" height="11.9048" stroke="white" stroke-opacity="0.06" stroke-width="0.238095"/>
<rect x="35.7143" y="35.7142" width="11.9048" height="11.9048" stroke="white" stroke-opacity="0.06" stroke-width="0.238095"/>
<rect x="47.619" y="35.7142" width="11.9048" height="11.9048" stroke="white" stroke-opacity="0.06" stroke-width="0.238095"/>
<rect x="59.5238" y="35.7142" width="11.9048" height="11.9048" stroke="white" stroke-opacity="0.06" stroke-width="0.238095"/>
<rect x="71.4286" y="35.7142" width="11.9048" height="11.9048" stroke="white" stroke-opacity="0.06" stroke-width="0.238095"/>
<rect x="83.3333" y="35.7142" width="11.9048" height="11.9048" stroke="white" stroke-opacity="0.06" stroke-width="0.238095"/>
<rect x="95.2381" y="35.7142" width="11.9048" height="11.9048" stroke="white" stroke-opacity="0.06" stroke-width="0.238095"/>
<rect x="107.143" y="35.7142" width="11.9048" height="11.9048" stroke="white" stroke-opacity="0.06" stroke-width="0.238095"/>
<rect x="119.048" y="35.7142" width="11.9048" height="11.9048" stroke="white" stroke-opacity="0.06" stroke-width="0.238095"/>
<rect x="130.952" y="35.7142" width="11.9048" height="11.9048" stroke="white" stroke-opacity="0.06" stroke-width="0.238095"/>
<rect x="142.857" y="35.7142" width="11.9048" height="11.9048" stroke="white" stroke-opacity="0.06" stroke-width="0.238095"/>
<rect x="154.762" y="35.7142" width="11.9048" height="11.9048" stroke="white" stroke-opacity="0.06" stroke-width="0.238095"/>
<rect x="166.667" y="35.7142" width="11.9048" height="11.9048" stroke="white" stroke-opacity="0.06" stroke-width="0.238095"/>
<rect x="178.571" y="35.7142" width="11.9048" height="11.9048" stroke="white" stroke-opacity="0.06" stroke-width="0.238095"/>
<rect x="190.476" y="35.7142" width="11.9048" height="11.9048" stroke="white" stroke-opacity="0.06" stroke-width="0.238095"/>
<rect x="202.381" y="35.7142" width="11.9048" height="11.9048" stroke="white" stroke-opacity="0.06" stroke-width="0.238095"/>
<rect x="214.286" y="35.7142" width="11.9048" height="11.9048" stroke="white" stroke-opacity="0.06" stroke-width="0.238095"/>
<rect x="226.19" y="35.7142" width="11.9048" height="11.9048" stroke="white" stroke-opacity="0.06" stroke-width="0.238095"/>
<rect x="238.095" y="35.7142" width="11.9048" height="11.9048" stroke="white" stroke-opacity="0.06" stroke-width="0.238095"/>
<rect y="47.619" width="11.9048" height="11.9048" stroke="white" stroke-opacity="0.06" stroke-width="0.238095"/>
<rect x="11.9048" y="47.619" width="11.9048" height="11.9048" stroke="white" stroke-opacity="0.06" stroke-width="0.238095"/>
<rect x="23.8095" y="47.619" width="11.9048" height="11.9048" stroke="white" stroke-opacity="0.06" stroke-width="0.238095"/>
<rect x="35.7143" y="47.619" width="11.9048" height="11.9048" fill="white" fill-opacity="0.05" stroke="white" stroke-opacity="0.06" stroke-width="0.238095"/>
<rect x="47.619" y="47.619" width="11.9048" height="11.9048" stroke="white" stroke-opacity="0.06" stroke-width="0.238095"/>
<rect x="59.5238" y="47.619" width="11.9048" height="11.9048" stroke="white" stroke-opacity="0.06" stroke-width="0.238095"/>
<rect x="71.4286" y="47.619" width="11.9048" height="11.9048" stroke="white" stroke-opacity="0.06" stroke-width="0.238095"/>
<rect x="83.3333" y="47.619" width="11.9048" height="11.9048" stroke="white" stroke-opacity="0.06" stroke-width="0.238095"/>
<rect x="95.2381" y="47.619" width="11.9048" height="11.9048" stroke="white" stroke-opacity="0.06" stroke-width="0.238095"/>
<rect x="107.143" y="47.619" width="11.9048" height="11.9048" stroke="white" stroke-opacity="0.06" stroke-width="0.238095"/>
<rect x="119.048" y="47.619" width="11.9048" height="11.9048" stroke="white" stroke-opacity="0.06" stroke-width="0.238095"/>
<rect x="130.952" y="47.619" width="11.9048" height="11.9048" stroke="white" stroke-opacity="0.06" stroke-width="0.238095"/>
<rect x="142.857" y="47.619" width="11.9048" height="11.9048" fill="white" fill-opacity="0.05" stroke="white" stroke-opacity="0.06" stroke-width="0.238095"/>
<rect x="154.762" y="47.619" width="11.9048" height="11.9048" stroke="white" stroke-opacity="0.06" stroke-width="0.238095"/>
<rect x="166.667" y="47.619" width="11.9048" height="11.9048" stroke="white" stroke-opacity="0.06" stroke-width="0.238095"/>
<rect x="178.571" y="47.619" width="11.9048" height="11.9048" stroke="white" stroke-opacity="0.06" stroke-width="0.238095"/>
<rect x="190.476" y="47.619" width="11.9048" height="11.9048" stroke="white" stroke-opacity="0.06" stroke-width="0.238095"/>
<rect x="202.381" y="47.619" width="11.9048" height="11.9048" stroke="white" stroke-opacity="0.06" stroke-width="0.238095"/>
<rect x="214.286" y="47.619" width="11.9048" height="11.9048" stroke="white" stroke-opacity="0.06" stroke-width="0.238095"/>
<rect x="226.19" y="47.619" width="11.9048" height="11.9048" stroke="white" stroke-opacity="0.06" stroke-width="0.238095"/>
<rect x="238.095" y="47.619" width="11.9048" height="11.9048" stroke="white" stroke-opacity="0.06" stroke-width="0.238095"/>
<rect y="59.5238" width="11.9048" height="11.9048" stroke="white" stroke-opacity="0.06" stroke-width="0.238095"/>
<rect x="11.9048" y="59.5238" width="11.9048" height="11.9048" stroke="white" stroke-opacity="0.06" stroke-width="0.238095"/>
<rect x="23.8095" y="59.5238" width="11.9048" height="11.9048" stroke="white" stroke-opacity="0.06" stroke-width="0.238095"/>
<rect x="35.7143" y="59.5238" width="11.9048" height="11.9048" stroke="white" stroke-opacity="0.06" stroke-width="0.238095"/>
<rect x="47.619" y="59.5238" width="11.9048" height="11.9048" stroke="white" stroke-opacity="0.06" stroke-width="0.238095"/>
<rect x="59.5238" y="59.5238" width="11.9048" height="11.9048" stroke="white" stroke-opacity="0.06" stroke-width="0.238095"/>
<rect x="71.4286" y="59.5238" width="11.9048" height="11.9048" stroke="white" stroke-opacity="0.06" stroke-width="0.238095"/>
<rect x="83.3333" y="59.5238" width="11.9048" height="11.9048" stroke="white" stroke-opacity="0.06" stroke-width="0.238095"/>
<rect x="95.2381" y="59.5238" width="11.9048" height="11.9048" stroke="white" stroke-opacity="0.06" stroke-width="0.238095"/>
<rect x="107.143" y="59.5238" width="11.9048" height="11.9048" stroke="white" stroke-opacity="0.06" stroke-width="0.238095"/>
<rect x="119.048" y="59.5238" width="11.9048" height="11.9048" stroke="white" stroke-opacity="0.06" stroke-width="0.238095"/>
<rect x="130.952" y="59.5238" width="11.9048" height="11.9048" stroke="white" stroke-opacity="0.06" stroke-width="0.238095"/>
<rect x="142.857" y="59.5238" width="11.9048" height="11.9048" stroke="white" stroke-opacity="0.06" stroke-width="0.238095"/>
<rect x="154.762" y="59.5238" width="11.9048" height="11.9048" stroke="white" stroke-opacity="0.06" stroke-width="0.238095"/>
<rect x="166.667" y="59.5238" width="11.9048" height="11.9048" stroke="white" stroke-opacity="0.06" stroke-width="0.238095"/>
<rect x="178.571" y="59.5238" width="11.9048" height="11.9048" stroke="white" stroke-opacity="0.06" stroke-width="0.238095"/>
<rect x="190.476" y="59.5238" width="11.9048" height="11.9048" stroke="white" stroke-opacity="0.06" stroke-width="0.238095"/>
<rect x="202.381" y="59.5238" width="11.9048" height="11.9048" stroke="white" stroke-opacity="0.06" stroke-width="0.238095"/>
<rect x="214.286" y="59.5238" width="11.9048" height="11.9048" fill="white" fill-opacity="0.05" stroke="white" stroke-opacity="0.06" stroke-width="0.238095"/>
<rect x="226.19" y="59.5238" width="11.9048" height="11.9048" stroke="white" stroke-opacity="0.06" stroke-width="0.238095"/>
<rect x="238.095" y="59.5238" width="11.9048" height="11.9048" stroke="white" stroke-opacity="0.06" stroke-width="0.238095"/>
<rect y="71.4286" width="11.9048" height="11.9048" stroke="white" stroke-opacity="0.06" stroke-width="0.238095"/>
<rect x="11.9048" y="71.4286" width="11.9048" height="11.9048" stroke="white" stroke-opacity="0.06" stroke-width="0.238095"/>
<rect x="23.8095" y="71.4286" width="11.9048" height="11.9048" stroke="white" stroke-opacity="0.06" stroke-width="0.238095"/>
<rect x="35.7143" y="71.4286" width="11.9048" height="11.9048" stroke="white" stroke-opacity="0.06" stroke-width="0.238095"/>
<rect x="47.619" y="71.4286" width="11.9048" height="11.9048" stroke="white" stroke-opacity="0.06" stroke-width="0.238095"/>
<rect x="59.5238" y="71.4286" width="11.9048" height="11.9048" stroke="white" stroke-opacity="0.06" stroke-width="0.238095"/>
<rect x="71.4286" y="71.4286" width="11.9048" height="11.9048" stroke="white" stroke-opacity="0.06" stroke-width="0.238095"/>
<rect x="83.3333" y="71.4286" width="11.9048" height="11.9048" stroke="white" stroke-opacity="0.06" stroke-width="0.238095"/>
<rect x="95.2381" y="71.4286" width="11.9048" height="11.9048" stroke="white" stroke-opacity="0.06" stroke-width="0.238095"/>
<rect x="107.143" y="71.4286" width="11.9048" height="11.9048" stroke="white" stroke-opacity="0.06" stroke-width="0.238095"/>
<rect x="119.048" y="71.4286" width="11.9048" height="11.9048" stroke="white" stroke-opacity="0.06" stroke-width="0.238095"/>
<rect x="130.952" y="71.4286" width="11.9048" height="11.9048" stroke="white" stroke-opacity="0.06" stroke-width="0.238095"/>
<rect x="142.857" y="71.4286" width="11.9048" height="11.9048" stroke="white" stroke-opacity="0.06" stroke-width="0.238095"/>
<rect x="154.762" y="71.4286" width="11.9048" height="11.9048" stroke="white" stroke-opacity="0.06" stroke-width="0.238095"/>
<rect x="166.667" y="71.4286" width="11.9048" height="11.9048" stroke="white" stroke-opacity="0.06" stroke-width="0.238095"/>
<rect x="178.571" y="71.4286" width="11.9048" height="11.9048" stroke="white" stroke-opacity="0.06" stroke-width="0.238095"/>
<rect x="190.476" y="71.4286" width="11.9048" height="11.9048" stroke="white" stroke-opacity="0.06" stroke-width="0.238095"/>
<rect x="202.381" y="71.4286" width="11.9048" height="11.9048" stroke="white" stroke-opacity="0.06" stroke-width="0.238095"/>
<rect x="214.286" y="71.4286" width="11.9048" height="11.9048" stroke="white" stroke-opacity="0.06" stroke-width="0.238095"/>
<rect x="226.19" y="71.4286" width="11.9048" height="11.9048" stroke="white" stroke-opacity="0.06" stroke-width="0.238095"/>
<rect x="238.095" y="71.4286" width="11.9048" height="11.9048" stroke="white" stroke-opacity="0.06" stroke-width="0.238095"/>
<rect y="83.3334" width="11.9048" height="11.9048" stroke="white" stroke-opacity="0.06" stroke-width="0.238095"/>
<rect x="11.9048" y="83.3334" width="11.9048" height="11.9048" stroke="white" stroke-opacity="0.06" stroke-width="0.238095"/>
<rect x="23.8095" y="83.3334" width="11.9048" height="11.9048" stroke="white" stroke-opacity="0.06" stroke-width="0.238095"/>
<rect x="35.7143" y="83.3334" width="11.9048" height="11.9048" stroke="white" stroke-opacity="0.06" stroke-width="0.238095"/>
<rect x="47.619" y="83.3334" width="11.9048" height="11.9048" stroke="white" stroke-opacity="0.06" stroke-width="0.238095"/>
<rect x="59.5238" y="83.3334" width="11.9048" height="11.9048" stroke="white" stroke-opacity="0.06" stroke-width="0.238095"/>
<rect x="71.4286" y="83.3334" width="11.9048" height="11.9048" stroke="white" stroke-opacity="0.06" stroke-width="0.238095"/>
<rect x="83.3333" y="83.3334" width="11.9048" height="11.9048" stroke="white" stroke-opacity="0.06" stroke-width="0.238095"/>
<rect x="95.2381" y="83.3334" width="11.9048" height="11.9048" fill="white" fill-opacity="0.05" stroke="white" stroke-opacity="0.06" stroke-width="0.238095"/>
<rect x="107.143" y="83.3334" width="11.9048" height="11.9048" stroke="white" stroke-opacity="0.06" stroke-width="0.238095"/>
<rect x="119.048" y="83.3334" width="11.9048" height="11.9048" stroke="white" stroke-opacity="0.06" stroke-width="0.238095"/>
<rect x="130.952" y="83.3334" width="11.9048" height="11.9048" stroke="white" stroke-opacity="0.06" stroke-width="0.238095"/>
<rect x="142.857" y="83.3334" width="11.9048" height="11.9048" stroke="white" stroke-opacity="0.06" stroke-width="0.238095"/>
<rect x="154.762" y="83.3334" width="11.9048" height="11.9048" stroke="white" stroke-opacity="0.06" stroke-width="0.238095"/>
<rect x="166.667" y="83.3334" width="11.9048" height="11.9048" stroke="white" stroke-opacity="0.06" stroke-width="0.238095"/>
<rect x="178.571" y="83.3334" width="11.9048" height="11.9048" stroke="white" stroke-opacity="0.06" stroke-width="0.238095"/>
<rect x="190.476" y="83.3334" width="11.9048" height="11.9048" stroke="white" stroke-opacity="0.06" stroke-width="0.238095"/>
<rect x="202.381" y="83.3334" width="11.9048" height="11.9048" stroke="white" stroke-opacity="0.06" stroke-width="0.238095"/>
<rect x="214.286" y="83.3334" width="11.9048" height="11.9048" stroke="white" stroke-opacity="0.06" stroke-width="0.238095"/>
<rect x="226.19" y="83.3334" width="11.9048" height="11.9048" stroke="white" stroke-opacity="0.06" stroke-width="0.238095"/>
<rect x="238.095" y="83.3334" width="11.9048" height="11.9048" stroke="white" stroke-opacity="0.06" stroke-width="0.238095"/>
<rect y="95.238" width="11.9048" height="11.9048" stroke="white" stroke-opacity="0.06" stroke-width="0.238095"/>
<rect x="11.9048" y="95.238" width="11.9048" height="11.9048" stroke="white" stroke-opacity="0.06" stroke-width="0.238095"/>
<rect x="23.8095" y="95.238" width="11.9048" height="11.9048" stroke="white" stroke-opacity="0.06" stroke-width="0.238095"/>
<rect x="35.7143" y="95.238" width="11.9048" height="11.9048" stroke="white" stroke-opacity="0.06" stroke-width="0.238095"/>
<rect x="47.619" y="95.238" width="11.9048" height="11.9048" fill="white" fill-opacity="0.05" stroke="white" stroke-opacity="0.06" stroke-width="0.238095"/>
<rect x="59.5238" y="95.238" width="11.9048" height="11.9048" stroke="white" stroke-opacity="0.06" stroke-width="0.238095"/>
<rect x="71.4286" y="95.238" width="11.9048" height="11.9048" stroke="white" stroke-opacity="0.06" stroke-width="0.238095"/>
<rect x="83.3333" y="95.238" width="11.9048" height="11.9048" stroke="white" stroke-opacity="0.06" stroke-width="0.238095"/>
<rect x="95.2381" y="95.238" width="11.9048" height="11.9048" stroke="white" stroke-opacity="0.06" stroke-width="0.238095"/>
<rect x="107.143" y="95.238" width="11.9048" height="11.9048" stroke="white" stroke-opacity="0.06" stroke-width="0.238095"/>
<rect x="119.048" y="95.238" width="11.9048" height="11.9048" stroke="white" stroke-opacity="0.06" stroke-width="0.238095"/>
<rect x="130.952" y="95.238" width="11.9048" height="11.9048" stroke="white" stroke-opacity="0.06" stroke-width="0.238095"/>
<rect x="142.857" y="95.238" width="11.9048" height="11.9048" stroke="white" stroke-opacity="0.06" stroke-width="0.238095"/>
<rect x="154.762" y="95.238" width="11.9048" height="11.9048" stroke="white" stroke-opacity="0.06" stroke-width="0.238095"/>
<rect x="166.667" y="95.238" width="11.9048" height="11.9048" stroke="white" stroke-opacity="0.06" stroke-width="0.238095"/>
<rect x="178.571" y="95.238" width="11.9048" height="11.9048" stroke="white" stroke-opacity="0.06" stroke-width="0.238095"/>
<rect x="190.476" y="95.238" width="11.9048" height="11.9048" stroke="white" stroke-opacity="0.06" stroke-width="0.238095"/>
<rect x="202.381" y="95.238" width="11.9048" height="11.9048" stroke="white" stroke-opacity="0.06" stroke-width="0.238095"/>
<rect x="214.286" y="95.238" width="11.9048" height="11.9048" stroke="white" stroke-opacity="0.06" stroke-width="0.238095"/>
<rect x="226.19" y="95.238" width="11.9048" height="11.9048" stroke="white" stroke-opacity="0.06" stroke-width="0.238095"/>
<rect x="238.095" y="95.238" width="11.9048" height="11.9048" stroke="white" stroke-opacity="0.06" stroke-width="0.238095"/>
<rect y="107.143" width="11.9048" height="11.9048" stroke="white" stroke-opacity="0.06" stroke-width="0.238095"/>
<rect x="11.9048" y="107.143" width="11.9048" height="11.9048" stroke="white" stroke-opacity="0.06" stroke-width="0.238095"/>
<rect x="23.8095" y="107.143" width="11.9048" height="11.9048" stroke="white" stroke-opacity="0.06" stroke-width="0.238095"/>
<rect x="35.7143" y="107.143" width="11.9048" height="11.9048" stroke="white" stroke-opacity="0.06" stroke-width="0.238095"/>
<rect x="47.619" y="107.143" width="11.9048" height="11.9048" stroke="white" stroke-opacity="0.06" stroke-width="0.238095"/>
<rect x="59.5238" y="107.143" width="11.9048" height="11.9048" stroke="white" stroke-opacity="0.06" stroke-width="0.238095"/>
<rect x="71.4286" y="107.143" width="11.9048" height="11.9048" stroke="white" stroke-opacity="0.06" stroke-width="0.238095"/>
<rect x="83.3333" y="107.143" width="11.9048" height="11.9048" stroke="white" stroke-opacity="0.06" stroke-width="0.238095"/>
<rect x="95.2381" y="107.143" width="11.9048" height="11.9048" stroke="white" stroke-opacity="0.06" stroke-width="0.238095"/>
<rect x="107.143" y="107.143" width="11.9048" height="11.9048" stroke="white" stroke-opacity="0.06" stroke-width="0.238095"/>
<rect x="119.048" y="107.143" width="11.9048" height="11.9048" stroke="white" stroke-opacity="0.06" stroke-width="0.238095"/>
<rect x="130.952" y="107.143" width="11.9048" height="11.9048" stroke="white" stroke-opacity="0.06" stroke-width="0.238095"/>
<rect x="142.857" y="107.143" width="11.9048" height="11.9048" stroke="white" stroke-opacity="0.06" stroke-width="0.238095"/>
<rect x="154.762" y="107.143" width="11.9048" height="11.9048" stroke="white" stroke-opacity="0.06" stroke-width="0.238095"/>
<rect x="166.667" y="107.143" width="11.9048" height="11.9048" stroke="white" stroke-opacity="0.06" stroke-width="0.238095"/>
<rect x="178.571" y="107.143" width="11.9048" height="11.9048" stroke="white" stroke-opacity="0.06" stroke-width="0.238095"/>
<rect x="190.476" y="107.143" width="11.9048" height="11.9048" stroke="white" stroke-opacity="0.06" stroke-width="0.238095"/>
<rect x="202.381" y="107.143" width="11.9048" height="11.9048" stroke="white" stroke-opacity="0.06" stroke-width="0.238095"/>
<rect x="214.286" y="107.143" width="11.9048" height="11.9048" stroke="white" stroke-opacity="0.06" stroke-width="0.238095"/>
<rect x="226.19" y="107.143" width="11.9048" height="11.9048" stroke="white" stroke-opacity="0.06" stroke-width="0.238095"/>
<rect x="238.095" y="107.143" width="11.9048" height="11.9048" stroke="white" stroke-opacity="0.06" stroke-width="0.238095"/>
<rect y="119.048" width="11.9048" height="11.9048" stroke="white" stroke-opacity="0.06" stroke-width="0.238095"/>
<rect x="11.9048" y="119.048" width="11.9048" height="11.9048" stroke="white" stroke-opacity="0.06" stroke-width="0.238095"/>
<rect x="23.8095" y="119.048" width="11.9048" height="11.9048" stroke="white" stroke-opacity="0.06" stroke-width="0.238095"/>
<rect x="35.7143" y="119.048" width="11.9048" height="11.9048" stroke="white" stroke-opacity="0.06" stroke-width="0.238095"/>
<rect x="47.619" y="119.048" width="11.9048" height="11.9048" stroke="white" stroke-opacity="0.06" stroke-width="0.238095"/>
<rect x="59.5238" y="119.048" width="11.9048" height="11.9048" stroke="white" stroke-opacity="0.06" stroke-width="0.238095"/>
<rect x="71.4286" y="119.048" width="11.9048" height="11.9048" stroke="white" stroke-opacity="0.06" stroke-width="0.238095"/>
<rect x="83.3333" y="119.048" width="11.9048" height="11.9048" stroke="white" stroke-opacity="0.06" stroke-width="0.238095"/>
<rect x="95.2381" y="119.048" width="11.9048" height="11.9048" stroke="white" stroke-opacity="0.06" stroke-width="0.238095"/>
<rect x="107.143" y="119.048" width="11.9048" height="11.9048" stroke="white" stroke-opacity="0.06" stroke-width="0.238095"/>
<rect x="119.048" y="119.048" width="11.9048" height="11.9048" stroke="white" stroke-opacity="0.06" stroke-width="0.238095"/>
<rect x="130.952" y="119.048" width="11.9048" height="11.9048" stroke="white" stroke-opacity="0.06" stroke-width="0.238095"/>
<rect x="142.857" y="119.048" width="11.9048" height="11.9048" stroke="white" stroke-opacity="0.06" stroke-width="0.238095"/>
<rect x="154.762" y="119.048" width="11.9048" height="11.9048" stroke="white" stroke-opacity="0.06" stroke-width="0.238095"/>
<rect x="166.667" y="119.048" width="11.9048" height="11.9048" stroke="white" stroke-opacity="0.06" stroke-width="0.238095"/>
<rect x="178.571" y="119.048" width="11.9048" height="11.9048" stroke="white" stroke-opacity="0.06" stroke-width="0.238095"/>
<rect x="190.476" y="119.048" width="11.9048" height="11.9048" stroke="white" stroke-opacity="0.06" stroke-width="0.238095"/>
<rect x="202.381" y="119.048" width="11.9048" height="11.9048" stroke="white" stroke-opacity="0.06" stroke-width="0.238095"/>
<rect x="214.286" y="119.048" width="11.9048" height="11.9048" stroke="white" stroke-opacity="0.06" stroke-width="0.238095"/>
<rect x="226.19" y="119.048" width="11.9048" height="11.9048" stroke="white" stroke-opacity="0.06" stroke-width="0.238095"/>
<rect x="238.095" y="119.048" width="11.9048" height="11.9048" stroke="white" stroke-opacity="0.06" stroke-width="0.238095"/>
<rect y="130.952" width="11.9048" height="11.9048" stroke="white" stroke-opacity="0.06" stroke-width="0.238095"/>
<rect x="11.9048" y="130.952" width="11.9048" height="11.9048" stroke="white" stroke-opacity="0.06" stroke-width="0.238095"/>
<rect x="23.8095" y="130.952" width="11.9048" height="11.9048" stroke="white" stroke-opacity="0.06" stroke-width="0.238095"/>
<rect x="35.7143" y="130.952" width="11.9048" height="11.9048" stroke="white" stroke-opacity="0.06" stroke-width="0.238095"/>
<rect x="47.619" y="130.952" width="11.9048" height="11.9048" stroke="white" stroke-opacity="0.06" stroke-width="0.238095"/>
<rect x="59.5238" y="130.952" width="11.9048" height="11.9048" stroke="white" stroke-opacity="0.06" stroke-width="0.238095"/>
<rect x="71.4286" y="130.952" width="11.9048" height="11.9048" stroke="white" stroke-opacity="0.06" stroke-width="0.238095"/>
<rect x="83.3333" y="130.952" width="11.9048" height="11.9048" stroke="white" stroke-opacity="0.06" stroke-width="0.238095"/>
<rect x="95.2381" y="130.952" width="11.9048" height="11.9048" stroke="white" stroke-opacity="0.06" stroke-width="0.238095"/>
<rect x="107.143" y="130.952" width="11.9048" height="11.9048" stroke="white" stroke-opacity="0.06" stroke-width="0.238095"/>
<rect x="119.048" y="130.952" width="11.9048" height="11.9048" stroke="white" stroke-opacity="0.06" stroke-width="0.238095"/>
<rect x="130.952" y="130.952" width="11.9048" height="11.9048" stroke="white" stroke-opacity="0.06" stroke-width="0.238095"/>
<rect x="142.857" y="130.952" width="11.9048" height="11.9048" stroke="white" stroke-opacity="0.06" stroke-width="0.238095"/>
<rect x="154.762" y="130.952" width="11.9048" height="11.9048" stroke="white" stroke-opacity="0.06" stroke-width="0.238095"/>
<rect x="166.667" y="130.952" width="11.9048" height="11.9048" stroke="white" stroke-opacity="0.06" stroke-width="0.238095"/>
<rect x="178.571" y="130.952" width="11.9048" height="11.9048" stroke="white" stroke-opacity="0.06" stroke-width="0.238095"/>
<rect x="190.476" y="130.952" width="11.9048" height="11.9048" stroke="white" stroke-opacity="0.06" stroke-width="0.238095"/>
<rect x="202.381" y="130.952" width="11.9048" height="11.9048" stroke="white" stroke-opacity="0.06" stroke-width="0.238095"/>
<rect x="214.286" y="130.952" width="11.9048" height="11.9048" stroke="white" stroke-opacity="0.06" stroke-width="0.238095"/>
<rect x="226.19" y="130.952" width="11.9048" height="11.9048" stroke="white" stroke-opacity="0.06" stroke-width="0.238095"/>
<rect x="238.095" y="130.952" width="11.9048" height="11.9048" stroke="white" stroke-opacity="0.06" stroke-width="0.238095"/>
<rect y="142.857" width="11.9048" height="11.9048" stroke="white" stroke-opacity="0.06" stroke-width="0.238095"/>
<rect x="11.9048" y="142.857" width="11.9048" height="11.9048" stroke="white" stroke-opacity="0.06" stroke-width="0.238095"/>
<rect x="23.8095" y="142.857" width="11.9048" height="11.9048" stroke="white" stroke-opacity="0.06" stroke-width="0.238095"/>
<rect x="35.7143" y="142.857" width="11.9048" height="11.9048" stroke="white" stroke-opacity="0.06" stroke-width="0.238095"/>
<rect x="47.619" y="142.857" width="11.9048" height="11.9048" stroke="white" stroke-opacity="0.06" stroke-width="0.238095"/>
<rect x="59.5238" y="142.857" width="11.9048" height="11.9048" stroke="white" stroke-opacity="0.06" stroke-width="0.238095"/>
<rect x="71.4286" y="142.857" width="11.9048" height="11.9048" stroke="white" stroke-opacity="0.06" stroke-width="0.238095"/>
<rect x="83.3333" y="142.857" width="11.9048" height="11.9048" stroke="white" stroke-opacity="0.06" stroke-width="0.238095"/>
<rect x="95.2381" y="142.857" width="11.9048" height="11.9048" stroke="white" stroke-opacity="0.06" stroke-width="0.238095"/>
<rect x="107.143" y="142.857" width="11.9048" height="11.9048" stroke="white" stroke-opacity="0.06" stroke-width="0.238095"/>
<rect x="119.048" y="142.857" width="11.9048" height="11.9048" stroke="white" stroke-opacity="0.06" stroke-width="0.238095"/>
<rect x="130.952" y="142.857" width="11.9048" height="11.9048" stroke="white" stroke-opacity="0.06" stroke-width="0.238095"/>
<rect x="142.857" y="142.857" width="11.9048" height="11.9048" stroke="white" stroke-opacity="0.06" stroke-width="0.238095"/>
<rect x="154.762" y="142.857" width="11.9048" height="11.9048" stroke="white" stroke-opacity="0.06" stroke-width="0.238095"/>
<rect x="166.667" y="142.857" width="11.9048" height="11.9048" stroke="white" stroke-opacity="0.06" stroke-width="0.238095"/>
<rect x="178.571" y="142.857" width="11.9048" height="11.9048" stroke="white" stroke-opacity="0.06" stroke-width="0.238095"/>
<rect x="190.476" y="142.857" width="11.9048" height="11.9048" stroke="white" stroke-opacity="0.06" stroke-width="0.238095"/>
<rect x="202.381" y="142.857" width="11.9048" height="11.9048" stroke="white" stroke-opacity="0.06" stroke-width="0.238095"/>
<rect x="214.286" y="142.857" width="11.9048" height="11.9048" stroke="white" stroke-opacity="0.06" stroke-width="0.238095"/>
<rect x="226.19" y="142.857" width="11.9048" height="11.9048" stroke="white" stroke-opacity="0.06" stroke-width="0.238095"/>
<rect x="238.095" y="142.857" width="11.9048" height="11.9048" stroke="white" stroke-opacity="0.06" stroke-width="0.238095"/>
<g filter="url(#filter0_f_109_84)">
<rect x="-20.2381" y="-167.877" width="301.905" height="237.785" fill="url(#paint0_radial_109_84)"/>
</g>
<rect x="-53.6905" y="-55.7498" width="343.571" height="215.869" fill="url(#paint1_radial_109_84)" stroke="#0A101F" stroke-width="0.238095"/>
</g>
<defs>
<filter id="filter0_f_109_84" x="-91.6667" y="-239.306" width="444.762" height="380.642" filterUnits="userSpaceOnUse" color-interpolation-filters="sRGB">
<feFlood flood-opacity="0" result="BackgroundImageFix"/>
<feBlend mode="normal" in="SourceGraphic" in2="BackgroundImageFix" result="shape"/>
<feGaussianBlur stdDeviation="35.7143" result="effect1_foregroundBlur_109_84"/>
</filter>
<radialGradient id="paint0_radial_109_84" cx="0" cy="0" r="1" gradientUnits="userSpaceOnUse" gradientTransform="translate(130.714 -48.9846) rotate(90) scale(118.892 150.952)">
<stop offset="0.015625" stop-color="#4D76F4" stop-opacity="0.69"/>
<stop offset="0.223958" stop-color="#4D76F4" stop-opacity="0.34"/>
<stop offset="0.911458" stop-color="#4D76F4" stop-opacity="0"/>
</radialGradient>
<radialGradient id="paint1_radial_109_84" cx="0" cy="0" r="1" gradientUnits="userSpaceOnUse" gradientTransform="translate(118.095 52.1846) rotate(90) scale(107.815 171.667)">
<stop stop-color="#0A101F" stop-opacity="0"/>
<stop offset="0.833333" stop-color="#0A101F"/>
</radialGradient>
<clipPath id="clip0_109_84">
<rect width="250" height="160" fill="white"/>
</clipPath>
</defs>
</svg>
