<svg width="24" height="22" viewBox="0 0 24 22" fill="none" xmlns="http://www.w3.org/2000/svg">
<path d="M11.9518 0.769766C11.9536 0.764322 11.9552 0.761397 11.9559 0.760189C11.956 0.760098 11.9562 0.759987 11.9564 0.759851C11.9604 0.757188 11.9755 0.75 12 0.75C12.0245 0.75 12.0396 0.757188 12.0436 0.759851C12.0438 0.759985 12.044 0.760097 12.0441 0.760187C12.0448 0.761393 12.0464 0.764319 12.0482 0.769765L14.3342 7.52748C14.5491 8.16285 15.1522 8.56659 15.8033 8.56659H23.2008C23.2198 8.56659 23.2301 8.56939 23.234 8.57068C23.2381 8.57202 23.2399 8.57325 23.2407 8.57384C23.2424 8.57513 23.2452 8.57802 23.2474 8.58247C23.2455 8.584 23.2432 8.58573 23.2404 8.58764L17.2557 12.7641C16.7114 13.144 16.4676 13.8345 16.6847 14.4762L18.9692 21.2296C18.9673 21.2313 18.965 21.2332 18.9621 21.2352C18.9473 21.2455 18.9316 21.2497 18.921 21.25C18.9188 21.25 18.9166 21.25 18.9145 21.2497C18.9124 21.2494 18.9102 21.249 18.908 21.2483C18.904 21.2471 18.8955 21.244 18.8828 21.2352L12.8981 17.0587C12.3607 16.6836 11.6393 16.6836 11.1019 17.0587L5.11721 21.2352C5.10448 21.244 5.09604 21.2471 5.09197 21.2483C5.08761 21.2496 5.08352 21.2501 5.07895 21.25C5.06836 21.2497 5.05269 21.2455 5.03788 21.2352C5.03502 21.2332 5.03268 21.2313 5.03078 21.2296L7.31529 14.4762C7.53235 13.8345 7.28857 13.144 6.74427 12.7641L0.759567 8.58764C0.75683 8.58573 0.754536 8.584 0.752631 8.58247C0.754831 8.57802 0.757598 8.57513 0.759343 8.57384C0.760138 8.57325 0.761911 8.57202 0.765995 8.57068C0.769904 8.56939 0.780183 8.56659 0.799229 8.56659H8.19673C8.84775 8.56659 9.45091 8.16285 9.66584 7.52748L11.9518 0.769766ZM12.0439 0.759801C12.0437 0.759601 12.0437 0.759499 12.0437 0.759514L12.0439 0.759801Z" stroke="#3300FF" stroke-width="1.5"/>
</svg>
